# AST/ASF file generated using VICON BodyLanguage
# -----------------------------------------------
:version 1.10
:name VICON
:units
  mass 1.0
  length 0.45
  angle deg
:documentation
   .ast/.asf automatically generated from VICON data using
   VICON BodyBuilder and BodyLanguage model FoxedUp or BRILLIANT.MOD
:root
   order TX TY TZ RX RY RZ
   axis XYZ
   position 0 0 0  
   orientation 0 0 0 
:bonedata
  begin
     id 1 
     name lhipjoint
     direction 0.661853 -0.702389 0.261917 
     length 2.64193 
     axis 0 0 0  XYZ
  end
  begin
     id 2 
     name lfemur
     direction 0.34202 -0.939693 0  
     length 7.01722  
     axis 0 0 20  XYZ
    dof rx ry rz
    limits (-160.0 20.0)
           (-70.0 70.0)
           (-60.0 70.0)
  end
  begin
     id 3 
     name ltibia
     direction 0.34202 -0.939693 0   
     length 8.25008   
     axis 0 0 20   XYZ
    dof rx
    limits (-10.0 170.0)
  end
  begin
     id 4 
     name lfoot
     direction 0.0709916 -0.195048 0.978221   
     length 2.31941   
     axis -90 7.62852e-016 20   XYZ
    dof rx rz
    limits (-45.0 90.0)
           (-70.0 20.0)
  end
  begin
     id 5 
     name ltoes
     direction 1.53586e-011 -4.22017e-011 1   
     length 1.16486   
     axis -90 7.62852e-016 20   XYZ
    dof rx
    limits (-90.0 20.0)
  end
  begin
     id 6 
     name rhipjoint
     direction -0.638185 -0.721362 0.268992   
     length 2.57244  
     axis 0 0 0  XYZ 
  end
  begin
     id 7 
     name rfemur
     direction -0.34202 -0.939693 0   
     length 7.07017   
     axis 0 0 -20   XYZ
    dof rx ry rz
    limits (-160.0 20.0)
           (-70.0 70.0)
           (-70.0 60.0)
  end
  begin
     id 8 
     name rtibia
     direction -0.34202 -0.939693 0   
     length 8.20386   
     axis 0 0 -20   XYZ
    dof rx
    limits (-10.0 170.0)
 end
 begin
     id 9 
     name rfoot
     direction -0.0822429 -0.225961 0.970658   
     length 2.32215  
     axis -90 -7.62852e-016 -20   XYZ
    dof rx rz
    limits (-45.0 90.0)
           (-20.0 70.0)
  end
  begin
     id 10 
     name rtoes
     direction -1.53597e-011 -4.21689e-011 1   
     length 1.16333   
     axis -90 -7.62852e-016 -20   XYZ
    dof rx
    limits (-90.0 20.0)
  end
  begin
     id 11 
     name lowerback
     direction -0.0131557 0.998589 -0.0514484   
     length 2.14993   
     axis 0 0 0   XYZ
    dof rx ry rz
    limits (-20.0 45.0)
           (-30.0 30.0)
           (-30.0 30.0)
  end
  begin
     id 12 
     name upperback
     direction -0.000776481 0.999993 0.00352685   
     length 2.15301   
     axis 0 0 0   XYZ
    dof rx ry rz
    limits (-20.0 45.0)
           (-30.0 30.0)
           (-30.0 30.0)
  end
  begin
     id 13 
     name thorax
     direction 0.00438186 0.999609 0.0276143   
     length 2.15424   
     axis 0 0 0   XYZ
    dof rx ry rz
    limits (-20.0 45.0)
           (-30.0 30.0)
           (-30.0 30.0)
  end
  begin
     id 14 
     name lowerneck
     direction -0.0488006 0.998094 0.0377807   
     length 1.90481   
     axis 0 0 0   XYZ
    dof rx ry rz
    limits (-20.0 45.0)
           (-30.0 30.0)
           (-30.0 30.0)
  end
  begin
     id 15 
     name upperneck
     direction 0.0443769 0.990702 -0.12861   
     length 1.91305   
     axis 0 0 0   XYZ
    dof rx ry rz
    limits (-20.0 45.0)
           (-30.0 30.0)
           (-30.0 30.0)
  end
  begin
     id 16
     name head
     direction 0.0165599 0.998647 -0.0492982  
     length 1.92369  
     axis 0 0 0   XYZ
    dof rx ry rz
    limits (-20.0 45.0)
           (-30.0 30.0)
           (-30.0 30.0)
  end
  begin
     id 17 
     name lclavicle
     direction 0.911936 0.410197 -0.0105506  
     length 3.52622  
     axis 0 0 0   XYZ
    dof ry rz
    limits (-20.0 10.0)
           (0.0 20.0)
  end
  begin
     id 18 
     name lhumerus
     direction 1 -4.48974e-011 -2.48591e-028   
     length 5.47651   
     axis 180 -30 -90   XYZ
    dof rx ry rz
    limits (-60.0 90.0)
           (-90.0 90.0)
           (-90.0 90.0)
  end
  begin
     id 19
     name lradius
     direction 1 -4.48938e-011 -4.40099e-027   
     length 3.09058   
     axis 180 -30 -90   XYZ
    dof rx
    limits (-10.0 170.0)
  end
  begin
     id 20
     name lwrist
     direction 1 -4.49042e-011 -2.99852e-027   
     length 1.54529   
     axis 1.95339e-015 90 90   XYZ
    dof ry
    limits (-180.0 0.0)
 end
  begin
     id 21 
     name lhand
     direction 1 -4.48815e-011 -5.98193e-027   
     length 0.771611   
     axis 3.82337e-015 90 90   XYZ
    dof rx rz
    limits (-90.0 90.0)
           (-45.0 45.0)
  end
  begin
     id 22 
     name lfingers
     direction 1 -4.49034e-011 -1.1993e-026   
     length 0.622093   
     axis 7.64668e-015 90 90   XYZ
    dof rx
    limits (0.0 90.0)
  end
  begin
     id 23
     name lthumb
     direction 0.707107 -6.34867e-011 0.707107   
     length 0.893204   
     axis -90 45 -1.62303e-014   XYZ
    dof rx rz
    limits (-45.0 45.0)
           (-45.0 45.0)
  end
  begin
     id 24 
     name rclavicle
     direction -0.93442 0.355634 -0.0195692   
     length 3.62463  
     axis 0 0 0   XYZ 
    dof ry rz
    limits (-10.0 20.0)
           (-20.0 0.0)
  end
  begin
     id 25 
     name rhumerus
     direction -1 -4.48957e-011 -1.19147e-027  
     length 5.14182   
     axis 180 30 90   XYZ
    dof rx ry rz
    limits (-90.0 60.0)
           (-90.0 90.0)
           (-90.0 90.0)
  end
  begin
     id 26 
     name rradius
     direction -1 -4.48952e-011 -3.81062e-027   
     length 3.35565   
     axis 180 30 90   XYZ
    dof rx
    limits (-10.0 170.0)
  end
  begin
     id 27 
     name rwrist
     direction -1 -4.48973e-011 -2.99621e-027   
     length 1.67782   
     axis 1.95339e-015 -90 -90   XYZ
    dof ry
    limits (-180.0 0.0)
  end
  begin
     id 28
     name rhand
     direction -1 -4.48895e-011 -5.98727e-027   
     length 0.801042   
     axis 3.82337e-015 -90 -90   XYZ
    dof rx rz
    limits (-90.0 90.0)
           (-45.0 45.0)
  end
  begin
     id 29
     name rfingers
     direction -1 -4.49065e-011 -1.19972e-026   
     length 0.645821   
     axis 7.64668e-015 -90 -90   XYZ
    dof rx
    limits (0.0 90.0)
  end
  begin
     id 30
     name rthumb
     direction -0.707107 -6.34957e-011 0.707107   
     length 0.927273   
     axis -90 -45 1.62303e-014   XYZ
    dof rx rz
    limits (-45.0 45.0)
           (-45.0 45.0)
  end
:hierarchy
  begin
    root lhipjoint rhipjoint lowerback
    lhipjoint lfemur
    lfemur ltibia
    ltibia lfoot
    lfoot ltoes
    rhipjoint rfemur
    rfemur rtibia
    rtibia rfoot
    rfoot rtoes
    lowerback upperback
    upperback thorax
    thorax lowerneck lclavicle rclavicle
    lowerneck upperneck
    upperneck head
    lclavicle lhumerus
    lhumerus lradius
    lradius lwrist
    lwrist lhand lthumb
    lhand lfingers
    rclavicle rhumerus
    rhumerus rradius
    rradius rwrist
    rwrist rhand rthumb
    rhand rfingers
  end

#!OML:ASF F:\VICON\USERDATA\INSTALL\rory3\rory3.ASF
:FULLY-SPECIFIED
:DEGREES
206
root 10.4659 17.9092 -9.98697 4.22879 -48.2873 -0.810666
lowerback 4.91896 0.483162 1.60733
upperback 1.02921 0.748478 2.1533
thorax -1.70767 0.361173 1.26317
lowerneck -5.7151 -3.04499 -5.83104
upperneck 21.0239 -3.93274 1.33969
head 7.54236 -2.2968 1.08205
rclavicle 8.33902e-014 -5.56597e-015
rhumerus -33.9476 -0.527174 -81.3249
rradius 30.7033
rwrist -4.47715
rhand -11.4163 16.3295
rfingers 7.12502
rthumb 14.6194 -13.1352
lclavicle 8.33902e-014 -5.56597e-015
lhumerus -34.7519 -14.8124 91.4801
lradius 50.3473
lwrist 17.0867
lhand -4.095 27.6713
lfingers 7.12502
lthumb 21.6627 56.4794
rfemur -14.962 1.72238 25.9997
rtibia 25.5554
rfoot -15.8884 -12.6007
rtoes 3.06268
lfemur -24.0176 2.83841 -18.8275
ltibia 71.3606
lfoot -1.41317 1.60718
ltoes -34.2485
207
root 10.3965 17.9064 -9.95078 4.08311 -48.4054 -0.647763
lowerback 4.92477 0.55637 1.61984
upperback 1.05485 0.844931 2.07285
thorax -1.68417 0.409407 1.16737
lowerneck -5.64533 -3.05094 -5.80717
upperneck 20.9613 -3.95253 1.36769
head 7.50981 -2.30128 1.08706
rclavicle -2.83268e-014 -1.03368e-014
rhumerus -33.7748 -0.772941 -81.2556
rradius 30.5159
rwrist -4.24426
rhand -11.4813 16.5078
rfingers 7.12502
rthumb 14.5568 -12.9615
lclavicle -2.83268e-014 -1.03368e-014
lhumerus -35.0249 -14.7723 91.449
lradius 50.7946
lwrist 17.0469
lhand -3.91399 27.7928
lfingers 7.12502
lthumb 21.8366 56.5807
rfemur -14.6153 1.83334 25.9486
rtibia 25.5262
rfoot -16.2294 -12.5905
rtoes 3.40602
lfemur -24.9942 2.79614 -19.1159
ltibia 71.6079
lfoot -1.82135 1.64411
ltoes -34.032
208
root 10.3259 17.9078 -9.91383 3.93655 -48.5539 -0.458666
lowerback 4.84781 0.662157 1.63068
upperback 1.11064 0.981188 1.98444
thorax -1.58328 0.477861 1.06304
lowerneck -5.55161 -3.08186 -5.85812
upperneck 20.8248 -4.00988 1.4655
head 7.45329 -2.32201 1.12489
rclavicle -1.95803e-014 -7.95139e-015
rhumerus -33.5887 -0.958565 -81.206
rradius 30.3858
rwrist -4.18266
rhand -11.5279 16.5106
rfingers 7.12502
rthumb 14.5119 -12.9619
lclavicle -1.95803e-014 -7.95139e-015
lhumerus -35.3138 -14.8521 91.4837
lradius 51.25
lwrist 17.2233
lhand -3.98773 27.825
lfingers 7.12502
lthumb 21.7657 56.6212
rfemur -14.303 1.98783 25.8807
rtibia 25.5048
rfoot -16.3965 -12.6056
rtoes 3.13707
lfemur -25.9375 2.68552 -19.4663
ltibia 71.6983
lfoot -2.23817 1.84438
ltoes -34.3309
209
root 10.2568 17.9145 -9.87983 3.83277 -48.7041 -0.242695
lowerback 4.76661 0.718987 1.50621
upperback 1.14749 1.04706 1.94855
thorax -1.50211 0.511636 1.09315
lowerneck -5.48739 -3.06021 -5.8954
upperneck 20.6687 -3.97906 1.48844
head 7.39062 -2.30574 1.143
rclavicle -5.54609e-014 -3.97569e-015
rhumerus -33.4207 -0.820578 -81.2002
rradius 30.3521
rwrist -4.27312
rhand -11.4731 16.4586
rfingers 7.12502
rthumb 14.5647 -13.0101
lclavicle -5.54609e-014 -3.97569e-015
lhumerus -35.4658 -14.685 91.511
lradius 51.4304
lwrist 17.3162
lhand -4.38677 27.591
lfingers 7.12502
lthumb 21.3825 56.4312
rfemur -14.0822 2.1639 25.8026
rtibia 25.5123
rfoot -16.5641 -12.6427
rtoes 2.85237
lfemur -26.9455 2.59806 -19.8502
ltibia 71.6539
lfoot -2.59298 2.08029
ltoes -35.3484
210
root 10.1894 17.9115 -9.84681 3.81819 -48.864 -0.151291
lowerback 4.75035 0.755601 1.40572
upperback 1.15497 1.09045 1.95324
thorax -1.48769 0.533697 1.15197
lowerneck -5.43105 -3.03022 -5.9324
upperneck 20.5289 -3.93665 1.50837
head 7.33428 -2.28455 1.16075
rclavicle -5.70512e-014 -7.15625e-015
rhumerus -33.2836 -0.61357 -81.2089
rradius 30.2886
rwrist -4.44113
rhand -11.4179 16.433
rfingers 7.12502
rthumb 14.6179 -13.0318
lclavicle -5.70512e-014 -7.15625e-015
lhumerus -35.545 -14.37 91.4776
lradius 51.4014
lwrist 17.1561
lhand -4.61909 27.3637
lfingers 7.12502
lthumb 21.1594 56.229
rfemur -13.8643 2.32752 25.8185
rtibia 25.5189
rfoot -16.7278 -12.7276
rtoes 2.45576
lfemur -27.9414 2.58306 -20.1228
ltibia 71.5366
lfoot -3.04441 2.2752
ltoes -36.3385
211
root 10.1225 17.9048 -9.81189 3.76966 -49.0048 -0.0280569
lowerback 4.74987 0.833569 1.36539
upperback 1.14409 1.19225 1.90766
thorax -1.49949 0.584763 1.1216
lowerneck -5.33073 -3.06978 -5.92709
upperneck 20.3641 -3.99617 1.51991
head 7.26495 -2.30937 1.1611
rclavicle -1.00088e-013 4.77083e-015
rhumerus -33.2465 -0.701306 -81.1474
rradius 30.2737
rwrist -4.42571
rhand -11.4826 16.2712
rfingers 7.12502
rthumb 14.5555 -13.1981
lclavicle -1.00088e-013 4.77083e-015
lhumerus -35.6742 -14.3964 91.5183
lradius 51.3082
lwrist 17.1999
lhand -4.8951 27.0507
lfingers 7.12502
lthumb 20.8942 55.9455
rfemur -13.6282 2.37951 25.8025
rtibia 25.5034
rfoot -16.6263 -12.8628
rtoes 0.185277
lfemur -28.9004 2.49282 -20.4042
ltibia 71.3211
lfoot -3.52377 2.44246
ltoes -36.1842
212
root 10.059 17.9064 -9.77734 3.68224 -49.0964 0.186999
lowerback 4.78876 0.914212 1.32617
upperback 1.10153 1.29904 1.808
thorax -1.56456 0.638318 1.03376
lowerneck -5.27157 -3.10949 -5.8887
upperneck 20.2552 -4.06503 1.56592
head 7.2214 -2.33389 1.16558
rclavicle -4.49253e-014 9.54166e-015
rhumerus -33.2613 -0.772847 -81.1541
rradius 30.3115
rwrist -4.38462
rhand -11.4765 16.1246
rfingers 7.12502
rthumb 14.5614 -13.3443
lclavicle -4.49253e-014 9.54166e-015
lhumerus -35.799 -14.6099 91.5657
lradius 51.1421
lwrist 17.5578
lhand -5.1175 26.4196
lfingers 7.12502
lthumb 20.6805 55.3378
rfemur -13.4336 2.40304 25.7029
rtibia 25.4964
rfoot -16.6314 -13.0086
rtoes -1.90337
lfemur -29.9092 2.27242 -20.7168
ltibia 70.988
lfoot -3.93992 2.46546
ltoes -34.3426
213
root 9.99576 17.9122 -9.74081 3.6488 -49.172 0.327413
lowerback 4.7789 0.951793 1.34184
upperback 1.11461 1.34829 1.72991
thorax -1.5438 0.663012 0.94208
lowerneck -5.30342 -3.11023 -5.84115
upperneck 20.1309 -4.07335 1.60958
head 7.1863 -2.32783 1.17135
rclavicle 8.21975e-014 -2.62396e-014
rhumerus -33.0493 -0.813051 -81.1848
rradius 30.1424
rwrist -4.34956
rhand -11.3976 16.2346
rfingers 7.12502
rthumb 14.6375 -13.2288
lclavicle 8.21975e-014 -2.62396e-014
lhumerus -35.8287 -14.6047 91.4912
lradius 50.9359
lwrist 17.8886
lhand -4.80857 26.0714
lfingers 7.12502
lthumb 20.9773 54.957
rfemur -13.233 2.39253 25.6525
rtibia 25.4792
rfoot -16.6119 -13.1051
rtoes -3.65306
lfemur -30.9266 1.97319 -20.9607
ltibia 70.5545
lfoot -4.42596 2.46599
ltoes -32.2466
214
root 9.92938 17.9175 -9.69847 3.55129 -49.3341 0.53517
lowerback 4.66771 1.00129 1.32733
upperback 1.17405 1.40818 1.64505
thorax -1.41928 0.693512 0.862135
lowerneck -5.29601 -3.11885 -5.80514
upperneck 19.9153 -4.08185 1.60517
head 7.11415 -2.32562 1.16447
rclavicle 7.196e-014 1.59028e-015
rhumerus -32.8481 -0.841887 -81.1822
rradius 30.0443
rwrist -4.40545
rhand -11.3158 16.3235
rfingers 7.12502
rthumb 14.7162 -13.1341
lclavicle 7.196e-014 1.59028e-015
lhumerus -35.8814 -14.5453 91.4334
lradius 50.6923
lwrist 17.9591
lhand -4.47879 26.7582
lfingers 7.12502
lthumb 21.2941 55.6084
rfemur -13.0071 2.36393 25.5433
rtibia 25.435
rfoot -16.265 -13.2104
rtoes -6.55377
lfemur -31.7644 1.71934 -21.2825
ltibia 69.9295
lfoot -4.85324 2.59636
ltoes -32.0919
215
root 9.86141 17.9189 -9.65872 3.49177 -49.532 0.700146
lowerback 4.6361 1.06549 1.25992
upperback 1.17099 1.48946 1.59902
thorax -1.40574 0.734472 0.848522
lowerneck -5.24456 -3.10254 -5.87325
upperneck 19.7415 -4.05693 1.64769
head 7.05001 -2.31246 1.19321
rclavicle -1.26228e-014 -4.77083e-015
rhumerus -32.8116 -0.780923 -81.1597
rradius 30.0881
rwrist -4.50144
rhand -11.2827 16.3735
rfingers 7.12502
rthumb 14.7482 -13.0818
lclavicle -1.26228e-014 -4.77083e-015
lhumerus -36.0368 -14.4164 91.437
lradius 50.3591
lwrist 17.9261
lhand -4.44606 26.9622
lfingers 7.12502
lthumb 21.3256 55.8088
rfemur -12.7699 2.43158 25.4625
rtibia 25.4062
rfoot -16.4045 -12.9956
rtoes -6.39054
lfemur -32.5333 1.55739 -21.5698
ltibia 69.1732
lfoot -5.19249 2.80107
ltoes -33.1857
216
root 9.79451 17.9147 -9.62602 3.5817 -49.6644 0.703009
lowerback 4.69259 1.09888 1.20057
upperback 1.10351 1.5345 1.61234
thorax -1.5088 0.756916 0.890888
lowerneck -5.16906 -3.06404 -5.8929
upperneck 19.6023 -4.00096 1.63779
head 6.98956 -2.28626 1.19961
rclavicle 4.85035e-014 -4.77083e-015
rhumerus -32.7954 -0.730907 -81.1361
rradius 30.0673
rwrist -4.47956
rhand -11.2592 16.3701
rfingers 7.12502
rthumb 14.7708 -13.0836
lclavicle 4.85035e-014 -4.77083e-015
lhumerus -36.2055 -14.1302 91.412
lradius 50.0129
lwrist 17.9884
lhand -4.31365 26.5743
lfingers 7.12502
lthumb 21.4527 55.4064
rfemur -12.5494 2.64193 25.5036
rtibia 25.433
rfoot -17.2244 -12.5693
rtoes -3.0306
lfemur -33.3385 1.35219 -21.706
ltibia 68.3191
lfoot -5.57561 2.90176
ltoes -32.6796
217
root 9.72746 17.9087 -9.59109 3.60718 -49.8044 0.794014
lowerback 4.70549 1.16687 1.17023
upperback 1.04802 1.6248 1.55525
thorax -1.57283 0.802119 0.842959
lowerneck -4.98333 -3.06332 -5.88689
upperneck 19.3351 -4.01345 1.67821
head 6.87132 -2.28568 1.21492
rclavicle 1.17382e-013 -1.27222e-014
rhumerus -32.8031 -0.818362 -81.133
rradius 30.0519
rwrist -4.4195
rhand -11.3132 16.2556
rfingers 7.12502
rthumb 14.7188 -13.2018
lclavicle 1.17382e-013 -1.27222e-014
lhumerus -36.3607 -14.0501 91.3687
lradius 49.7257
lwrist 18.0879
lhand -4.19258 26.6074
lfingers 7.12502
lthumb 21.569 55.4263
rfemur -12.3521 2.83821 25.494
rtibia 25.4755
rfoot -18.0581 -12.3173
rtoes -0.652545
lfemur -34.0881 1.10304 -21.9011
ltibia 67.3549
lfoot -5.99588 2.96488
ltoes -32.7798
218
root 9.66035 17.9014 -9.55197 3.51784 -50.0039 0.92529
lowerback 4.71384 1.26806 1.20681
upperback 1.09101 1.75877 1.44087
thorax -1.52953 0.868992 0.697521
lowerneck -4.93488 -3.10047 -5.8486
upperneck 19.1133 -4.07347 1.72575
head 6.79352 -2.30426 1.2211
rclavicle -5.20816e-014 1.59028e-014
rhumerus -32.7153 -1.09642 -81.1141
rradius 30.0319
rwrist -4.26016
rhand -11.2704 16.2535
rfingers 7.12502
rthumb 14.76 -13.201
lclavicle -5.20816e-014 1.59028e-014
lhumerus -36.4177 -14.2715 91.3278
lradius 49.3805
lwrist 18.1656
lhand -4.15605 26.7656
lfingers 7.12502
lthumb 21.6041 55.5805
rfemur -12.0929 2.90826 25.4602
rtibia 25.5013
rfoot -18.7208 -12.1425
rtoes 0.520343
lfemur -34.6576 0.859296 -22.101
ltibia 66.2585
lfoot -6.41229 2.94669
ltoes -32.7076
